/vscmnt/brussel_pixiu_data/_data_brussel/112/vsc11236/PredSimResults/SUBJ09opt3D/expIG/worker_07.mot
version=1
nRows=9
nColumns=50
inDegrees=yes
endheader
                time	         pelvis_tilt	         pelvis_list	     pelvis_rotation	           pelvis_tx	           pelvis_ty	           pelvis_tz	       hip_flexion_r	     hip_adduction_r	      hip_rotation_r	        knee_angle_r	       ankle_angle_r	         mtp_angle_r	       hip_flexion_l	     hip_adduction_l	      hip_rotation_l	        knee_angle_l	       ankle_angle_l	         mtp_angle_l	    lumbar_extension	      lumbar_bending	     lumbar_rotation	 ercspn_r/activation	 intobl_r/activation	 extobl_r/activation	    abd_r/activation	    add_r/activation	hamstrings_r/activation	bifemsh_r/activation	glut_max_r/activation	iliopsoas_r/activation	rect_fem_r/activation	  vasti_r/activation	gastroc_r/activation	 soleus_r/activation	tib_ant_r/activation	 ercspn_l/activation	 intobl_l/activation	 extobl_l/activation	    abd_l/activation	    add_l/activation	hamstrings_l/activation	bifemsh_l/activation	glut_max_l/activation	iliopsoas_l/activation	rect_fem_l/activation	  vasti_l/activation	gastroc_l/activation	 soleus_l/activation	tib_ant_l/activation	
          1.28598228	         -4.22856618	         -0.85931856	          8.20660363	          1.54317874	          0.98995064	         -0.00272690	         28.83437456	         -1.63958355	         -8.79059502	         -6.69947477	          3.92387818	          0.24210526	        -13.70598833	         -2.47433718	         -5.48293439	        -10.83376429	          3.43567898	         37.21700917	        -13.37863579	         -1.29009038	         -6.83496506	          0.02580359	          0.15036898	          0.03128629	          0.01000000	          0.22862351	          0.05915071	          0.11621675	          0.09295884	          0.12344583	          0.01256604	          0.01000003	          0.01474600	          0.01000010	          0.32203178	          0.03132504	          0.01000004	          0.01000003	          0.02640494	          0.01214338	          0.01792795	          0.15044270	          0.01327769	          0.01094208	          0.01000008	          0.01000005	          0.28905286	          0.21299676	          0.01214329	
          1.29884210	         -4.26331479	         -0.97463997	          8.16248469	          1.56336978	          0.98773602	         -0.00191262	         28.63932430	         -1.44562333	         -8.94568790	         -8.31780217	          3.53048891	          0.20874031	        -14.28616349	         -2.82480030	         -5.96257091	        -11.71447104	          2.27557511	         38.78791166	        -12.84226720	         -0.84109562	         -7.04135321	          0.02124926	          0.12382873	          0.02576424	          0.07939035	          0.19383774	          0.06303411	          0.09570441	          0.12345852	          0.10165754	          0.01034813	          0.01000003	          0.01214338	          0.01214330	          0.36290546	          0.02579617	          0.01000000	          0.01000005	          0.02174445	          0.01000010	          0.01476368	          0.12388950	          0.01093418	          0.01000021	          0.01000006	          0.01000005	          0.25535467	          0.18958533	          0.01000000	
          1.31170193	         -4.27888061	         -1.09580536	          8.08361758	          1.58377064	          0.98585655	         -0.00100990	         28.36141289	         -1.24260223	         -9.10175020	         -9.81896812	          2.93722347	          0.20204316	        -14.64189889	         -3.20907782	         -6.45751107	        -13.03502970	          0.99996104	         40.25969683	        -12.30085303	         -0.38484557	         -7.21431669	          0.02597240	          0.10197285	          0.02121683	          0.13380636	          0.21041079	          0.05327613	          0.07881251	          0.15917015	          0.08371489	          0.01000001	          0.01000006	          0.01000007	          0.01000000	          0.40864795	          0.03031654	          0.01000000	          0.01000001	          0.01790653	          0.01000002	          0.01215790	          0.10202293	          0.01000000	          0.01963203	          0.01000008	          0.01000003	          0.21028436	          0.15620582	          0.00999999	
          1.32456175	         -4.27660468	         -1.21890576	          7.97217856	          1.60401548	          0.98452329	         -0.00001093	         28.16450047	         -1.04234694	         -9.25710092	        -11.47850472	          2.38139420	          0.16786527	        -14.66264246	         -3.63472471	         -6.95974693	        -14.95319695	         -0.34816150	         41.44590510	        -11.79710390	          0.07549628	         -7.35126701	          0.03105356	          0.08397455	          0.01747204	          0.18103747	          0.23719639	          0.05393383	          0.06490204	          0.15653821	          0.06893914	          0.01000002	          0.10020479	          0.01000004	          0.01000003	          0.43122982	          0.08505142	          0.01000002	          0.01000001	          0.01474601	          0.03929290	          0.02690357	          0.08401583	          0.01000001	          0.01616710	          0.01000003	          0.01000004	          0.17316899	          0.12863536	          0.01000000	
          1.33742157	         -4.25946579	         -1.34578845	          7.83774360	          1.62388138	          0.98391283	          0.00106393	         28.03451414	         -0.83624395	         -9.36534694	        -13.30117336	          2.17504099	          0.12566309	        -14.27129242	         -4.11385243	         -7.49027254	        -17.56216251	         -1.75005955	         42.10838919	        -11.35046110	          0.54209406	         -7.45693025	          0.02640475	          0.06915297	          0.01438821	          0.20170432	          0.25230006	          0.05037207	          0.05344679	          0.18135444	          0.05677132	          0.01000002	          0.19281343	          0.01000005	          0.01000003	          0.43011422	          0.09693933	          0.01000002	          0.01000001	          0.01214333	          0.12922667	          0.02767033	          0.06918701	          0.01000000	          0.02449781	          0.01000002	          0.01000000	          0.14260451	          0.10593111	          0.01000000	
          1.35028140	         -4.23150953	         -1.45966598	          7.67786634	          1.64321368	          0.98417451	          0.00217955	         27.87095348	         -0.62542502	         -9.42654173	        -15.09673335	          2.36670489	          0.09239809	        -13.41634790	         -4.64164660	         -8.09566076	        -20.93429593	         -3.11730155	         41.81843769	        -10.97576157	          0.99778777	         -7.52742149	          0.02174445	          0.05694741	          0.01184869	          0.20572508	          0.27570834	          0.05369556	          0.04401339	          0.18037878	          0.04675114	          0.01000002	          0.22305046	          0.01000004	          0.01000002	          0.39360281	          0.09634805	          0.01000002	          0.01000001	          0.01000002	          0.18068508	          0.02955235	          0.05697556	          0.01000000	          0.02017415	          0.01000001	          0.01000000	          0.11743469	          0.08723418	          0.01000000	
          1.36314122	         -4.19524010	         -1.53910234	          7.48836897	          1.66197629	          0.98529640	          0.00329902	         27.59075200	         -0.42076634	         -9.44486234	        -16.70042482	          2.88909971	          0.08783666	        -12.10767681	         -5.21215766	         -8.77059141	        -25.00690873	         -4.56992744	         40.51040192	        -10.67520798	          1.42051761	         -7.55754680	          0.01790656	          0.04689615	          0.01000001	          0.20541120	          0.27732281	          0.05719043	          0.03624500	          0.18269862	          0.03849952	          0.01000002	          0.25691417	          0.01000009	          0.01000006	          0.33840807	          0.08653915	          0.01000001	          0.01000001	          0.00999999	          0.24644558	          0.03206432	          0.05004824	          0.00999999	          0.01661345	          0.01000001	          0.00999999	          0.09670736	          0.07183727	          0.02872135	
          1.37600104	         -4.15229435	         -1.56497109	          7.26608488	          1.68016091	          0.98717553	          0.00437890	         27.11944702	         -0.22921601	         -9.39652342	        -17.94961354	          3.58068757	          0.16863439	        -10.40240495	         -5.81381017	         -9.48307106	        -29.63873075	         -6.09279472	         37.98332275	        -10.44796093	          1.79169287	         -7.54071080	          0.01474605	          0.03861894	          0.01000002	          0.21111161	          0.22838019	          0.05841694	          0.02984774	          0.16417109	          0.03170432	          0.01000001	          0.26394138	          0.01000004	          0.01000001	          0.28548581	          0.07739888	          0.03562134	          0.01000021	          0.00999999	          0.22264754	          0.02640499	          0.04121476	          0.01000000	          0.01368119	          0.01000001	          0.00999999	          0.07963843	          0.05915793	          0.08406395	
          1.38886086	         -4.10344287	         -1.53144801	          7.01403916	          1.69773934	          0.98962804	          0.00539273	         26.45547615	         -0.05843197	         -9.27112015	        -18.81029548	          4.27414479	          0.35021314	         -8.39680163	         -6.42541807	        -10.12241058	        -34.63357592	         -7.45560923	         34.00220730	        -10.29592293	          2.10255309	         -7.46947064	          0.01214338	          0.03180266	          0.01000001	          0.17834479	          0.19962128	          0.05925685	          0.02457960	          0.13519484	          0.02610848	          0.01000001	          0.27287406	          0.01000003	          0.01000001	          0.23920987	          0.10918202	          0.06604573	          0.07513994	          0.01018799	          0.18335006	          0.02174449	          0.03394037	          0.01000009	          0.01126648	          0.01000006	          0.01000000	          0.06558218	          0.04871650	          0.18930081	
